<svg xmlns="http://www.w3.org/2000/svg" viewBox="0 0 647.99 469.19"><defs><style>.cls-1{fill:#217675;}.cls-2{fill:#f1a629;}.cls-3,.cls-6{fill:none;}.cls-4{fill:#d30128;}.cls-5{fill:#fff;}.cls-6{stroke:#000;stroke-miterlimit:10;stroke-width:2.5px;}</style></defs><title>Initial Logo Design</title><g id="Layer_2" data-name="Layer 2"><g id="Layer_1-2" data-name="Layer 1"><path class="cls-1" d="M136.68,157.5a4.83,4.83,0,0,0-3.25-4l-.05,0h0c-16.24-2.56-58-4.71-80.47-5.12A59.34,59.34,0,0,0,57,131.62l.07-.77,1.59-.49c17.62-6.55,30.72-25.27,31.87-45.54.49-8.51-1.63-21.3-9.22-29.33A19.1,19.1,0,0,0,67,49.14l-1.12,0C50.51,50.55,50.55,69.86,50.57,81.4v1.25c.08,9.85.26,17.46.41,23.57.12,4.91.22,8.79.22,12.21,0,2.11,0,4.1-.12,5.93l-.21,2.11A56.44,56.44,0,0,1,40,127.83a16,16,0,0,1-2.1-.11C25.13,126,16.24,116.43,16.24,104.41A22.81,22.81,0,0,1,17.84,96c.08-.27.18-.54.27-.81.39-1.09.84-2.33.1-3.22a1,1,0,0,0-.81-.38c-1.23,0-3.22,2.3-3.68,3.47a32.24,32.24,0,0,0-1.92,10.61c0,13.58,10,24.42,25,27a36.74,36.74,0,0,0,6.38.51,38.51,38.51,0,0,0,7.05-.64A83.48,83.48,0,0,1,46.85,148l-.1.32c-2.09,0-4,0-5.68-.07s-3-.05-4.41-.05a53.57,53.57,0,0,0-9.35.63,7.48,7.48,0,0,0-5.11,3.42,8.27,8.27,0,0,0-1.5,6c1.5,5.7,7.7,8.3,12.84,8.3,6.42,0,12.19-4.33,16.68-12.5,23,.39,65.55,1.9,84,4.32l.59.74.43-.09a1.53,1.53,0,0,0,1.44-1.28l0-.12ZM56.76,78.27c0-11.27,1.11-22.92,9.38-23.8a15.71,15.71,0,0,1,1.92-.12c13.08,0,16.54,17.36,16.54,26.55,0,1.39-.14,2.8-.25,3.92C82.4,102,71.65,117.7,57.45,124.16l.19-3.08,0-.72c.11-2.39.22-4.66.22-6.94,0-5.57-.3-11-.59-16.14s-.54-9.88-.54-14.75ZM33.46,161a9.39,9.39,0,0,1-2.48.35c-3,0-5.36-1.59-5.87-3.92a2.25,2.25,0,0,1,.17-1.83,3.43,3.43,0,0,1,2.45-1A103.13,103.13,0,0,1,39.41,154c1.17,0,2.37,0,3.66.05A23.31,23.31,0,0,1,33.46,161Z"/><path class="cls-1" d="M195.93,125.6a2.38,2.38,0,0,0-2-.67,22.45,22.45,0,0,0-4.91.81c-5.47,1.58-26.77,4.09-41.7,4.09-5.66,0-9.38-.31-11.67-1-2.8-.89-3.38-3.38-3.38-5.32a11.85,11.85,0,0,1,1.76-6.1l.29-.45,0-.06a1.87,1.87,0,0,0-.32-1.85,5.78,5.78,0,0,0-4-2.39,1.46,1.46,0,0,0-1.38.75l-.05.09-.11.12c-.23.29-.71.85-1.62,2.06l-1.28-.36a37.05,37.05,0,0,0-10-1.53c-4.87,0-9.18,1.19-11.82,3.27a8.08,8.08,0,0,0-3.53,6.45,9,9,0,0,0,1.36,4.63,11.45,11.45,0,0,0,9,5.09c5.55,0,10.59-3.92,14.64-7.07.37-.29.73-.58,1.09-.85,1.18,3.82,7.58,8.43,11.62,9.53A52.62,52.62,0,0,0,149.84,136c13.72,0,31.77-3.14,40.6-6,.05,0,5.31-1.71,5.74-3.39A1.11,1.11,0,0,0,195.93,125.6Zm-87.73,2.48c-1.6,0-2.41-.59-2.41-1.77a6.48,6.48,0,0,1,2.81-4.68,17.13,17.13,0,0,1,9.6-2.62,22.61,22.61,0,0,1,5,.49l.16,0C119.7,123.26,112.71,128.08,108.2,128.08Z"/><path class="cls-1" d="M290.64,206.54c0,3-.26,10-2.65,10.22l-.22,0c-1.4,0-2.87-1.52-3.45-2.48l-.28-.45.16-.19c-.14-.52-.4-.32-.74-10.37V203l.21-.21a68.42,68.42,0,0,1,5.64-5.26l1.15-1,0,1.49C290.59,203.46,290.64,205.28,290.64,206.54Z"/><path class="cls-1" d="M360.91,52.83c-1.7-6.82-10-10.43-24.08-10.43A124.1,124.1,0,0,0,309,45.93l-.7.19c-4.61,1.24-10.8,2.91-17.4,5a1.93,1.93,0,0,0,0-1A3.7,3.7,0,0,0,289,48a4.93,4.93,0,0,0-2.6-.94,2.41,2.41,0,0,0-1.25.33l-.15.09-.1.16c-.76,1.27-1.15,3.11-1.53,5.82-15.74,5.06-34,11.67-44.66,16.14l-5.83,2.34-.12.19a3,3,0,0,0-.16,3.18,3.29,3.29,0,0,0,2.7,1.75,2.05,2.05,0,0,0,.74-.14c11-5.07,28.52-11.55,46.94-17.41-.82,11.27-1.17,22.71-1.17,36.9,0,5,0,10.22.1,16.07-9.87.36-20.09,1-33,2.24a1.47,1.47,0,0,0-1.19,1,2.24,2.24,0,0,0,.58,2.16,2,2,0,0,0,.62.68,1.08,1.08,0,0,0,.22.29l.06.06.06,0a5.21,5.21,0,0,0,2.56.95,1.85,1.85,0,0,0,.58-.09h0c8.78,2.44,21.11,10.69,27.75,21.79l0,0,0,0a11.16,11.16,0,0,1,1,1.68,17.89,17.89,0,0,0,1.1,1.86c0,2.88.28,20.67.68,37.94l0,1.39,1.12-.83c1.79-1.34,3.69-2.63,5.62-3.83l.35-.21v-.42c-.85-29.57-1.81-31.56-2.24-32.46l-.37-29.26c7-.24,20.52-.35,27.8-.35,2.1,0,4.28,0,6.52.06,2.4,0,4.89.06,7.48.06a1.69,1.69,0,0,0,1.66-.93,1.8,1.8,0,0,0-.6-2,5.07,5.07,0,0,0-3.68-2.26h-9.5c-8.18,0-22.33.11-29.81.23l0-2.25c.11-16.55.21-30.86,1.94-52.63,7.88-2.38,14.79-4.3,20.51-5.85,11-2.77,20.86-4.24,28.6-4.24,10.05,0,16.89,2.44,19.74,7a1.42,1.42,0,0,0,1.27.8,1.4,1.4,0,0,0,1.08-.5A2.06,2.06,0,0,0,360.91,52.83ZM261.44,119c6.69-.58,13.68-1,20.4-1.25l.21,18.11A68.62,68.62,0,0,0,261.44,119Z"/><path class="cls-1" d="M392.93,118.62l-.23.2a2.58,2.58,0,0,1,0,.29c0,.28-.05.57-.07.85.18-.18.35-.36.5-.53a3,3,0,0,1,.29-.25l.09-.91A3.55,3.55,0,0,0,392.93,118.62Z"/><path class="cls-1" d="M528.27,163.42c-3.45-5-5.88-27.15-5.88-37.24v-5.63c0-32.71,2.3-48.79,5.75-62.93a1.86,1.86,0,0,0-.46-1.5,3,3,0,0,0-2.3-.95h0l-.41,0c-1.49,0-3.16.69-3.34,1.81-4,15-5.41,41.42-5.41,61.09v6.3l-.05.08c-2.79,4.6-8.62,14.18-12.64,14.18a2.21,2.21,0,0,1-1.07-.27c-1.28-.87-3.43-4.94-3.43-22.42,0-23.53,3.81-56.13,4.46-58.19l0-.11v-.11c0-1.08-1.38-2.25-2.71-2.92a4.13,4.13,0,0,0-1.52-.35,1.47,1.47,0,0,0-1.56,1.22c-1.77,5.67-4.78,36.63-4.78,58.59,0,2,0,3.72.07,5.4-4.71,4.09-16.05,12.14-22.74,12.14a5.29,5.29,0,0,1-3.16-1c-1.25-1.09.54-14.2,1.66-15.71l.15-.15,0-.22c.23-1.08-.82-2.35-2.45-2.93l-.07,0a7.34,7.34,0,0,0-1.71-.23c-1.42,0-1.86.61-2,1-1.24,2-2,5.38-2.17,9.18-4.39,3-13.7,6.91-16.68,6.91a7.63,7.63,0,0,1-4.19-1.36c-1.52-1.31-2.32-3.73-3-5.85a25,25,0,0,0-1.14-3l0-.07a5.78,5.78,0,0,0-4.12-2.5,1.76,1.76,0,0,0-1.07.33l-11.24,9.17c-.28-1.14-.48-2.17-.68-3.1a29,29,0,0,0-1.72-6.17l0-.07-.05-.07a6.22,6.22,0,0,0-4.17-2.53,1.89,1.89,0,0,0-.84.18c-5,2.43-9.05,6.87-13,11.16,0,0,0,0,0,0,0-1.27.09-2.36.16-3.42.09-1.42.17-2.76.12-4.33a2.53,2.53,0,0,0-.66-1.92,5,5,0,0,0-3.29-1.88,1.55,1.55,0,0,0-1.61,1.38c-.24,1.52-.43,3-.57,4.39l.23-.2a4.66,4.66,0,0,1,.55-.36l-.09.91-.29.25a6.17,6.17,0,0,1-.5.53c0-.27,0-.56.07-.84a2.58,2.58,0,0,0,0-.29l-.13.12c-3.77,4.2-13,10.06-19.36,10.06a7.89,7.89,0,0,1-1.55-.14c-2.27-.63-2.28-3.62-2.23-4.48a19.16,19.16,0,0,1,1.35-4.7c.22-.55.43-1.09.6-1.6a1.88,1.88,0,0,0-.15-1.82,5.42,5.42,0,0,0-3.89-2.43,1.48,1.48,0,0,0-1.34.69L364.2,117a26.13,26.13,0,0,0-10-2,22.53,22.53,0,0,0-12.4,3.5c-3.11,2.1-4.82,5-4.82,8.22a9.18,9.18,0,0,0,4.09,7.47,8.7,8.7,0,0,0,4.88,1.37c6.82,0,14.84-6.22,18.1-9a12.34,12.34,0,0,0,9,7.37,10.06,10.06,0,0,0,2.34.25c5.31,0,12.34-3.33,15.33-6.32.61-.61,1.16-1.2,1.67-1.77,0,1.47.12,3,.22,4.52l0,.35V131c.42,1.66,3.14,3.85,4.78,3.85a1.48,1.48,0,0,0,1-.36A50.35,50.35,0,0,0,404,128.4a44.94,44.94,0,0,1,8.24-8.3,49.39,49.39,0,0,0,3,9.67,5.6,5.6,0,0,0,4.21,2.61,1.86,1.86,0,0,0,.87-.19h0l0,0c3.36-2.23,6.62-4.85,11.42-8.78a15.58,15.58,0,0,0,1.62,3,17.57,17.57,0,0,0,4.45,4.42,16.45,16.45,0,0,0,8.76,2.62c5,0,10.6-2.92,14.32-6.06a12.08,12.08,0,0,0,2.53,6.07,11.41,11.41,0,0,0,8.77,3.5h.67c7.07-.3,15.76-6.64,20.34-11.55.48,7.39,1.48,11.94,3.05,13.89a11.28,11.28,0,0,0,9.09,4.79c5.64,0,9.13-4.7,11.38-9.18.63,7.45,2.54,24.59,7.11,29.7l.15.18c1.15,1.27,1.85,2,3.56,2.19l.43,0,.23-.35.09-.1C528.92,165.86,529.41,164.93,528.27,163.42ZM343.68,130.08a1.55,1.55,0,0,1-1.53-2.11c1.19-5,8.54-7.58,15.18-7.58a20.14,20.14,0,0,1,3.48.3C356.44,124.92,349.21,129.37,343.68,130.08Z"/><path class="cls-1" d="M393.48,118.27l-.09.91a3,3,0,0,0-.29.25c-.15.17-.32.35-.5.53,0-.28,0-.57.07-.85a2.58,2.58,0,0,0,0-.29l.23-.2A3.55,3.55,0,0,1,393.48,118.27Z"/><path class="cls-1" d="M472.21,97a1.46,1.46,0,0,1,.15,1,5.4,5.4,0,0,1-.45,2.33l-.19.5a31.57,31.57,0,0,1-1.47,3.56,2,2,0,0,1-1.74.71,4.64,4.64,0,0,1-2.15-.55,3.2,3.2,0,0,1-2.26-2.08,1.3,1.3,0,0,1,.36-1.16c.17-.34.63-1.62.89-2.32l.35-.91.23-1.75c0-.71.67-1.42,2-1.42a4.22,4.22,0,0,1,1.51.29A4.15,4.15,0,0,1,472.21,97Z"/><path class="cls-1" d="M609.93,115.8a1.63,1.63,0,0,0-1.33-.6,2,2,0,0,0-1.19.4c-3.1,2.41-38.17,17.49-54.34,17.49-5.11,0-10.68-2-11.46-7.67h.15a13.29,13.29,0,0,0,9.7-4.09,7.84,7.84,0,0,0,2.32-5.85c-.15-1.69-1.35-3.18-3.45-4.22a10,10,0,0,0-3.89-.68c-5.77,0-10.33,4.48-11.09,10.89a12.57,12.57,0,0,0,3,10.2c3.42,3.8,9.69,6,17.2,6h.92c18.76-.47,51.89-13.15,53.71-20.56A1.48,1.48,0,0,0,609.93,115.8Zm-61.69.26h.22c-1,2.06-4.33,4.79-6.52,4.79h0A6.25,6.25,0,0,1,548.24,116.06Z"/><path class="cls-1" d="M58.34,339.37a6.67,6.67,0,0,0-3.05-3.05H55.1l-.38-.38c-.56-1-1.14-3.24-2.28-7.25a93.45,93.45,0,0,1-1.72-16.39,176.79,176.79,0,0,1-.57-17.74c0-8.58.19-17.54.57-26.51.19-7.24.57-14.68,1.33-24.21.2-3.24,1.72-8.58,2.11-12.4.94-9,3-31.46,3.24-40-.39-2.87-6.68-6.3-7.25-3.44-.2.38-3.82,27.65-5.15,43.86l-.38,6.86A216.24,216.24,0,0,1,35.85,269l-1.53-.57a48,48,0,0,0-12.78-1.72c-8.2,0-13.72,2.67-17.53,6.29a14,14,0,0,0-4,9.73c0,4,1.91,8.2,6.48,11.82a17.93,17.93,0,0,0,11.63,3.81c13.35-.95,21.17-18.3,25.17-29v6.86c0,5.15-.19,10.49-.19,15.45,0,6.1.19,12,.57,17.36a100,100,0,0,0,1.92,17c.75,4.18,2.28,8.57,5,11.63a12.33,12.33,0,0,0,5.53,3.62C58.16,341.66,58.92,340.9,58.34,339.37ZM33.56,273.78c-4,8-10.11,18.5-19.45,19.44a7.17,7.17,0,0,1-5-1.71A6.86,6.86,0,0,1,6.87,286a11.79,11.79,0,0,1,3.43-8c2.85-3.05,7.43-5.15,15.63-5.15a60.57,60.57,0,0,1,7.82.57Z"/><path class="cls-1" d="M178.47,270c-5.15,4-59.11,26.88-83.52,26.88-9.15,0-18.12-4-18.68-13.91,10.67.76,19.26-7.06,18.68-13.92-.19-2.29-1.9-4.2-4.58-5.53a14.1,14.1,0,0,0-5.52-1c-8,0-14.69,6.1-15.83,15.63C67.12,295.9,84.47,302,100.1,301.61c30.13-.76,78.37-20.4,80.85-30.5C181.33,269.58,179.42,269.2,178.47,270Zm-89-1.14c-.76,4-8.57,10.68-12.78,9.15C77.41,273.2,81.41,267.86,89.42,268.82Z"/><path class="cls-1" d="M389,275.3c-5.53,33.56-42.53,65.41-76.28,65.41a43.08,43.08,0,0,1-7.05-.58c-35.65-5-51.86-43.47-51.1-73.4,1.14-44.25,31.46-90.2,77-88.67,22.32.76,30.13,14.49,30.13,31.65,0,23.46-14.68,53-27.84,63.69-.95.76-1.71,2.1-.57,2.66,1.52.77,9.15-3.62,10.3-4.57,13.73-11.06,25.55-36.8,25.55-59.11,0-21.16-10.68-39.28-40.23-39.28-49.78,0-81.81,50.15-82.57,94.19-.58,37.56,23.07,74.18,59.87,77.61,2.86.19,5.54.38,8.2.38,40,0,71.32-28.21,77.42-60.44C393.35,276.83,389,272.44,389,275.3Z"/><path class="cls-1" d="M603.27,263.09c-10.49-1.71-24.6,9.35-29.37,15.45l.2-7.43a5.57,5.57,0,0,0-2.86-4c-1.91-1-3.82-1-3.82.38-.42,3.86-.77,7.23-1.06,10.17-6.55,6.23-17,14.48-28.87,15-5.34-.57-6.67-5.14-7.44-9.72a67.3,67.3,0,0,1,.38-7.82c.39-2.86-6.28-6.29-6.86-3.62-1.53,6.86-14.3,27.07-22.12,21.73-2.09-1.33-2.86-4.38-2.86-7.81,0-5,1.72-10.49,4.39-12.21.95-.57,1.33-1.71-.19-3.24-1.53-1.72-3.62-2.67-5.15-2.29-1.72.57-2.86,2.29-3.81,4.2a13.41,13.41,0,0,0-1,2.28c-9.52,9.65-10.52,21.37-26,21.37a15.48,15.48,0,0,1-10.48-3.82,13,13,0,0,1-3.63-7.44l-.39-1.33c10.11,3.81,21.93-7.63,20.8-12.78-.58-1.91-2.68-4.19-5.35-5.53l-2.1-.76a15.06,15.06,0,0,0-15.06,2.86,19.16,19.16,0,0,0-1.82,2.13c.21.33.42.69.61,1a18.77,18.77,0,0,1,1.83,11.48,19.1,19.1,0,0,1-1.39,4.64l1.35,6.26c.19.56.76.94,1.13,1.33a25.89,25.89,0,0,0,18.31,7.24c13.31,0,14.86-8.75,21.16-18.58a22,22,0,0,0,1.1,5.8c2.1,6.49,8.58,11.45,14.88,11.45,7.81,0,13.34-6.68,17.15-12.2a17.33,17.33,0,0,0,16,10.86c11.32.66,20.11-6.89,24.76-12.77-.65,9-.31,11.62.21,12.77.76,2.86,7.05,5.34,6.86,2.86.76-5.52.76-6.67,1.34-8.2,4.57-13.15,20.4-24.79,29.93-24.6l-.19,1.53c-.19,1.52,2.48,2.67,5.15-.38C610.32,267.86,607.66,263.86,603.27,263.09Zm-137.43,5.73c-.76,4-8.58,10.68-13,9.15C454.6,273.59,457.84,267.86,465.84,268.82Z"/><path class="cls-2" d="M516.59,339.22h-2.14A199.44,199.44,0,0,1,486.77,337a188.13,188.13,0,0,1-27.23-5.79,173,173,0,0,1-22.2-8l-3.79-1.64a98.18,98.18,0,0,1-16.92-8.65,47.39,47.39,0,0,1-15-15.23,34.31,34.31,0,0,1-4.11-10.22,25.8,25.8,0,0,1-.08-11.36,18.73,18.73,0,0,1,2.3-5.57A16.63,16.63,0,0,1,404,266a14.33,14.33,0,0,1,5.82-2.53,11.21,11.21,0,0,1,2.27-.22,11.74,11.74,0,0,1,4.31.8,12.45,12.45,0,0,1,4.37,2.89,15.49,15.49,0,0,1,4.92-4.29,14.1,14.1,0,0,1,5.88-1.76c.39,0,.78,0,1.17,0a15.54,15.54,0,0,1,4.8.75,15.32,15.32,0,0,1,5.26,2.95,15.71,15.71,0,0,1,3.68,4.68,18.65,18.65,0,0,1,1.82,11.42,22.26,22.26,0,0,1-4.78,10.17,35,35,0,0,1-7.92,7.12,74.22,74.22,0,0,1-8.92,5l-1.52-2.4,2.47-2c1.73-1.36,3.53-2.77,5.17-4.23a36.89,36.89,0,0,0,6.23-6.82,21.36,21.36,0,0,0,3.36-7.89,13.19,13.19,0,0,0-.8-7.94,8.71,8.71,0,0,0-2.3-3,9.63,9.63,0,0,0-3.4-1.8,10.24,10.24,0,0,0-2.85-.42,8.87,8.87,0,0,0-4.5,1.19,9.75,9.75,0,0,0-4.5,5.9l-.14.6-.06.2a3.06,3.06,0,0,1-2.94,2.2,3.06,3.06,0,0,1-.85-.12,3.12,3.12,0,0,1-1.47-.93,3,3,0,0,1-.71-1.47l-.07-.37a3.32,3.32,0,0,0-.15-.55l0-.1a5.18,5.18,0,0,0-.77-1.28,6.18,6.18,0,0,0-2.66-1.87,5.09,5.09,0,0,0-1.84-.33,7.6,7.6,0,0,0-4.49,1.63,10,10,0,0,0-2.45,2.76,11.92,11.92,0,0,0-1.35,3.62,18.83,18.83,0,0,0,.34,8.32,27.32,27.32,0,0,0,3.49,8,32.35,32.35,0,0,0,2.64,3.61,35.18,35.18,0,0,0,3.1,3.27,44.36,44.36,0,0,0,7.31,5.5,77.17,77.17,0,0,0,14.11,7c.84.32,1.72.69,2.69,1.12l5.38,2.39a104.39,104.39,0,0,0,14.32,5c1.36.39,2.85.82,4.57,1.34a181.71,181.71,0,0,0,26,5.59,191.63,191.63,0,0,0,26.56,2.21l2.39,0c3.77,0,7.45-.12,10.93-.34,5-.31,9.32-.72,13.24-1.27a144.76,144.76,0,0,0,25.79-5.75,93.37,93.37,0,0,0,12-5.05,116.27,116.27,0,0,0,11.34-6.63c3.52-2.34,7.12-5,10.7-7.82,1.9-1.51,3.47-2.81,5-4.19s3.12-3,4.51-4.59a90.69,90.69,0,0,0,14.15-21.81,150.91,150.91,0,0,0,9.07-24.91,182.62,182.62,0,0,0,5.15-26.12,186.22,186.22,0,0,0-1.15-53.16,179.83,179.83,0,0,0-16.26-50.6,186.07,186.07,0,0,0-71.64-77.2,196.19,196.19,0,0,0-23.92-11.87c-4.3-1.83-8.74-3.46-12.53-4.81-4-1.36-8.35-2.81-12.78-4.07A343.29,343.29,0,0,0,447.69,10c-8.09-1.06-16.87-1.85-26.87-2.41C414.43,7.18,407.63,7,400,7c-2.06,0-4.13,0-6.19,0A398.76,398.76,0,0,0,287.35,23.18c-7.53,2.2-15.67,4.93-25.6,8.59C253,35.07,210.58,52.2,202.4,55.82l-1.89.87c-3.39,1.57-6.9,3.19-10.29,4.89l-1,.51c-1.65.81-3.36,1.64-5,2.51-2,1-4,2-6.13,3-1.72.83-3.45,1.67-5.17,2.52l-.65.31c1.85-.11,3.71-.17,5.55-.17.81,0,1.63,0,2.44,0A85.7,85.7,0,0,1,192,71.44a72.06,72.06,0,0,1,11.47,2.83l-.57,2.79c-3.38-.24-7.37-.5-11.39-.62-1.75,0-3.36-.06-4.89-.06-2.26,0-4.34.05-6.34.14-3.75.15-7.5.45-11.15.87-4,.47-7.57,1-11,1.73l-7.77,1.56,2.67-4,1.69-2.54c1.25-1.89,2.48-3.85,3.78-6,1.2-2,2.39-4.06,3.53-6.19,1-1.86,2-3.79,2.95-5.65l.37-.74.33-.68c.94-1.94,1.89-3.88,2.81-5.85l2.71.88a67.7,67.7,0,0,1-1.79,7.27c-.76,2.61-1.72,5.14-2.47,7-.36.89-.73,1.78-1.13,2.67,2.81-1.84,5.76-3.67,8.93-5.54,4.31-2.44,8.31-4.53,12.25-6.4,3.48-1.72,7.1-3.37,10.59-5l1.84-.84c8.35-3.68,51.44-21,59.9-24,8.81-3.15,17.6-6,26.12-8.49A410.66,410.66,0,0,1,393.72.06c2.62,0,5-.06,7.44-.06,7.3,0,13.86.17,20,.53,10.19.56,19.15,1.34,27.38,2.39A351.58,351.58,0,0,1,502.5,13.7c3.8,1.07,7.86,2.36,13.15,4.16,4.14,1.47,8.57,3.07,13,4.92a205,205,0,0,1,24.84,12.27,191.15,191.15,0,0,1,43.18,34.68,193.25,193.25,0,0,1,31.59,45.48,187.75,187.75,0,0,1,17.08,52.72,194.46,194.46,0,0,1,1.33,55.39,191,191,0,0,1-5.32,27.29,159.9,159.9,0,0,1-9.48,26.24,99.29,99.29,0,0,1-15.38,23.76c-1.59,1.79-3.28,3.52-5,5.14s-3.75,3.28-5.42,4.61c-3.73,3-7.52,5.78-11.26,8.27a123.15,123.15,0,0,1-12.15,7.13,102.45,102.45,0,0,1-13.06,5.54,152.5,152.5,0,0,1-27.31,6.18c-4.2.59-8.74,1-13.86,1.37C524.6,339.1,520.74,339.22,516.59,339.22Z"/><line class="cls-3" x1="157.73" y1="77.24" x2="157.09" y2="78.21"/><path class="cls-4" d="M118.91,461.91a21.4,21.4,0,1,1,21.42-21.3A21.38,21.38,0,0,1,118.91,461.91ZM130,440.51a11.07,11.07,0,1,0-11.07,11.08A11.06,11.06,0,0,0,130,440.51Z"/><path class="cls-5" d="M130,440.51a11.07,11.07,0,1,1-11.06-11.08A11.08,11.08,0,0,1,130,440.51Zm-4.74-5.29a8.26,8.26,0,1,0-7.57,13.47,8,8,0,0,0,7.57-3,6.66,6.66,0,0,1-9.56-9.06A6.78,6.78,0,0,1,125.25,435.22Zm-.21,2.51,0-.08-2.36.77c-.92.3-.92.3-1.49-.5s-1-1.32-1.45-2a16.09,16.09,0,0,0-.09,2.06c0,.46.13,1-.09,1.34s-.82.36-1.26.5l-2.05.68,2.45.79c1,.31,1,.31,1,1.3V445a22.1,22.1,0,0,0,1.82-2.35.54.54,0,0,1,.76-.24c.92.33,1.86.61,2.79.92a26.55,26.55,0,0,0-1.7-2.49.5.5,0,0,1,0-.72C123.88,439.36,124.45,438.54,125,437.73Z"/><path class="cls-4" d="M125.25,435.22a6.78,6.78,0,0,0-9.56,1.45,6.66,6.66,0,0,0,9.56,9.06,8,8,0,0,1-7.57,3,8.27,8.27,0,1,1,7.57-13.47Z"/><path class="cls-4" d="M125,437.73c-.59.81-1.16,1.63-1.77,2.42a.5.5,0,0,0,0,.72,26.55,26.55,0,0,1,1.7,2.49c-.93-.31-1.87-.59-2.79-.92a.54.54,0,0,0-.76.24,22.1,22.1,0,0,1-1.82,2.35V442.6c0-1,0-1-1-1.3l-2.45-.79,2.05-.68c.44-.14,1-.19,1.26-.5s.08-.88.09-1.34a16.09,16.09,0,0,1,.09-2.06c.48.67,1,1.33,1.45,2s.57.8,1.49.5l2.36-.77Z"/><path d="M227.14,425.57v7.62h-3.47v-21H230a8.46,8.46,0,0,1,5.61,1.69,5.86,5.86,0,0,1,2,4.75,6.51,6.51,0,0,1-2.08,5,7.88,7.88,0,0,1-5.62,1.95Zm0-10.51v7.67h2.26a5,5,0,0,0,3.41-1,3.71,3.71,0,0,0,1.17-2.93q0-3.7-4.3-3.7Z"/><path d="M265.89,433.19H254.26v-21h3.48v18.07h8.15Z"/><path d="M300,433.19h-3.82l-1.89-5.35H286l-1.81,5.35h-3.81l7.87-21h3.92ZM293.37,425l-2.91-8.38a9.65,9.65,0,0,1-.28-1.32h-.06a8.45,8.45,0,0,1-.29,1.32L286.94,425Z"/><path d="M327.3,415.14h-6v18.05h-3.49V415.14h-6v-3H327.3Z"/><path d="M355.22,433.19H343.43v-21h11.33v3h-7.84v5.95h7.22V424h-7.22v6.22h8.3Z"/><path d="M383.35,415.14H375.5v6.32h7.24v2.94H375.5v8.79H372v-21h11.34Z"/><path d="M408.8,433.54a9.44,9.44,0,0,1-7.27-2.94,10.8,10.8,0,0,1-2.74-7.66,11.45,11.45,0,0,1,2.79-8.09,9.77,9.77,0,0,1,7.56-3,9.23,9.23,0,0,1,7.12,2.93,10.84,10.84,0,0,1,2.71,7.66,11.51,11.51,0,0,1-2.77,8.13A9.58,9.58,0,0,1,408.8,433.54Zm.16-18.65a5.82,5.82,0,0,0-4.69,2.16,8.48,8.48,0,0,0-1.81,5.67,8.62,8.62,0,0,0,1.75,5.64,5.7,5.7,0,0,0,4.6,2.13,5.94,5.94,0,0,0,4.77-2,8.52,8.52,0,0,0,1.74-5.7,8.92,8.92,0,0,0-1.69-5.81A5.73,5.73,0,0,0,409,414.89Z"/><path d="M452.1,433.19H448l-3.35-5.62a12.74,12.74,0,0,0-.89-1.33,5,5,0,0,0-.88-.9,2.75,2.75,0,0,0-1-.51,4,4,0,0,0-1.19-.17h-1.41v8.53h-3.47v-21h6.92a9.78,9.78,0,0,1,2.72.36,6.19,6.19,0,0,1,2.17,1.06,4.88,4.88,0,0,1,1.44,1.77,5.55,5.55,0,0,1,.52,2.48,6.08,6.08,0,0,1-.33,2,5.34,5.34,0,0,1-.93,1.65,5.7,5.7,0,0,1-1.47,1.24,7.11,7.11,0,0,1-1.93.79v.06a4.81,4.81,0,0,1,1,.71c.28.26.55.52.81.8a9.47,9.47,0,0,1,.75.93c.25.35.53.75.83,1.21ZM439.34,415v6.83h2.9a4.43,4.43,0,0,0,1.49-.25,3.44,3.44,0,0,0,1.18-.72,3.3,3.3,0,0,0,.78-1.14,4,4,0,0,0,.28-1.51,3,3,0,0,0-1-2.36,4,4,0,0,0-2.74-.85Z"/><path d="M490.16,433.19h-3.45V419.6c0-1.12.06-2.48.2-4.09h-.06a13,13,0,0,1-.57,2L480,433.19h-2.4l-6.28-15.59a13,13,0,0,1-.56-2.09h-.06c.08.84.12,2.21.12,4.12v13.56H467.6v-21h4.91l5.52,14a19.57,19.57,0,0,1,.82,2.41h.08c.36-1.11.65-1.93.88-2.46l5.62-13.94h4.73Z"/><path d="M520.18,433.19H508.39v-21h11.32v3h-7.84v5.95h7.23V424h-7.23v6.22h8.31Z"/><path d="M223.67,469.19v-21h6.06q11.63,0,11.62,10.24a10.09,10.09,0,0,1-3.22,7.82,12.29,12.29,0,0,1-8.64,2.95Zm3.47-18.05v15.11h2.78a7.76,7.76,0,0,0,5.72-2,7.63,7.63,0,0,0,2.05-5.71q0-7.36-7.63-7.37Z"/><path d="M270,469.19H258.24v-21h11.33v3h-7.84v5.95H269V460h-7.22v6.22H270Z"/><path d="M307.07,469.19v-21h6.67a7.84,7.84,0,0,1,4.82,1.34,4.13,4.13,0,0,1,1.78,3.47,4.89,4.89,0,0,1-1,3.1,5.4,5.4,0,0,1-2.8,1.88V458a5.46,5.46,0,0,1,3.47,1.6,4.93,4.93,0,0,1,1.3,3.53,5.28,5.28,0,0,1-2.13,4.36,8.41,8.41,0,0,1-5.36,1.67ZM310.54,451v6h2.26a4.35,4.35,0,0,0,2.85-.86,3,3,0,0,0,1-2.42q0-2.7-3.6-2.7Zm0,8.78v6.65h3a4.53,4.53,0,0,0,3-.9,3.08,3.08,0,0,0,1.06-2.49q0-3.25-4.53-3.26Z"/><path d="M341.82,469.19h-3.59v-21h3.59Z"/><path d="M371.84,469.19H360.05v-21h11.32v3h-7.84v5.95h7.22V460h-7.22v6.22h8.31Z"/><path d="M406.44,469.19h-3.81l-10-15.44a6.14,6.14,0,0,1-.63-1.22h-.09a21.26,21.26,0,0,1,.12,2.89v13.77h-3.37v-21h4.06l9.69,15.08a12.55,12.55,0,0,1,.79,1.29h.06a20.09,20.09,0,0,1-.14-2.83V448.18h3.35Z"/><path d="M431.68,460.64h-8v-2.51h8Z"/><path d="M460.54,469.19H448.75v-21h11.33v3h-7.84v5.95h7.22V460h-7.22v6.22h8.3ZM459,446.24H456.6l-2.36-3.09L452,446.24h-2.28l3.29-4.81h2.69Z"/><path d="M490.81,451.14h-6v18.05h-3.49V451.14h-6v-3h15.54Z"/><path d="M523.17,469.19H519.1l-3.36-5.62a11.36,11.36,0,0,0-.88-1.33,5,5,0,0,0-.88-.9,2.75,2.75,0,0,0-1-.51,4,4,0,0,0-1.19-.17h-1.41v8.53h-3.47v-21h6.92a9.78,9.78,0,0,1,2.72.36,6.19,6.19,0,0,1,2.17,1.06,5,5,0,0,1,1.44,1.77,5.55,5.55,0,0,1,.52,2.48,6.08,6.08,0,0,1-.33,2,5.17,5.17,0,0,1-.94,1.65,5.49,5.49,0,0,1-1.46,1.24,7.11,7.11,0,0,1-1.93.79v.06a5.09,5.09,0,0,1,1,.71c.28.26.55.52.8.8a8.24,8.24,0,0,1,.76.93c.25.35.52.75.83,1.21ZM510.41,451v6.83h2.9a4.43,4.43,0,0,0,1.49-.25,3.53,3.53,0,0,0,1.18-.72,3.3,3.3,0,0,0,.78-1.14,4,4,0,0,0,.27-1.51,3,3,0,0,0-.95-2.36,4,4,0,0,0-2.74-.85Z"/><path d="M550.46,469.19H538.67v-21H550v3h-7.84v5.95h7.22V460h-7.22v6.22h8.3Z"/><line class="cls-6" x1="182.11" y1="469.01" x2="182.11" y2="411.83"/></g></g></svg>